# xmcd
#
# Track frame offsets:
#	150
#	16527
#	34066
#	46979
#	61387
#	74490
#	88210
#	102997
#	115341
#	135202
#	150205
#	163678
#	176145
#	193115
#	210275
#	225418
#
# Disc length: 3205 seconds
#
# Revision: 0
# Processed by: cddbd v1.5.2PL0 Copyright (c) Steve Scherf et al.
# Submitted via: EZCDAudioConverter 2.0.5.1
#
DISCID=c80c8310
DTITLE=Various Artist - 咱的臺灣老歌 vol. 1
DYEAR=1
DGENRE=Country
TTITLE0=尤雅 - 孤女的願望
TTITLE1=陳小雲 - 媽媽歌星
TTITLE2=文夏 - 星星知我心
TTITLE3=黃三元 - 素蘭小姐要出嫁
TTITLE4=西卿 - 相思燈
TTITLE5=江蕙 - 深情難捨
TTITLE6=洪一峰 - 男兒的哀歌
TTITLE7=洪榮宏 - 流浪吉普賽姑娘
TTITLE8=西卿 - 可憐的酒家女
TTITLE9=陳盈潔 - 流浪的馬車
TTITLE10=葉啟田 - 一見鍾情
TTITLE11=郭金發 - 青春嶺
TTITLE12=江蕙 - 哀愁的風雨橋
TTITLE13=江蕙 - 黃昏城
TTITLE14=葉啟田 - 墓仔埔也敢去
TTITLE15=文夏 - 迎馬祖之夜
EXTD=
EXTT0=
EXTT1=
EXTT2=
EXTT3=
EXTT4=
EXTT5=
EXTT6=
EXTT7=
EXTT8=
EXTT9=
EXTT10=
EXTT11=
EXTT12=
EXTT13=
EXTT14=
EXTT15=
PLAYORDER=
